<svg baseProfile="full" height="563.2" version="1.1" width="563.2" xmlns="http://www.w3.org/2000/svg" xmlns:ev="http://www.w3.org/2001/xml-events" xmlns:xlink="http://www.w3.org/1999/xlink" viewBox="0 0 256 256"><defs></defs><polygon fill="#FFD274" points="139.0,36.0 139.0,89.0 191.0,89.0 191.0,36.0" stroke="black" stroke-width="4"></polygon><polygon fill="#FFD274" points="48.0,89.0 48.0,131.0 139.0,131.0 139.0,89.0" stroke="black" stroke-width="4"></polygon><polygon fill="#BEBEBE" points="108.0,36.0 108.0,89.0 139.0,89.0 139.0,36.0" stroke="black" stroke-width="4"></polygon><polygon fill="#BEBEBE" points="88.0,131.0 88.0,189.0 139.0,189.0 139.0,131.0" stroke="black" stroke-width="4"></polygon><polygon fill="#BFE3E8" points="139.0,189.0 139.0,211.0 191.0,211.0 191.0,189.0" stroke="black" stroke-width="4"></polygon><polygon fill="#EE4D4D" points="139.0,89.0 139.0,189.0 191.0,189.0 191.0,89.0" stroke="black" stroke-width="4"></polygon><polygon fill="#727171" points="189.0,147.0 193.0,147.0 193.0,163.0 189.0,163.0" stroke="none"></polygon><polygon fill="#D3A2C7" points="137.0,74.0 141.0,74.0 141.0,90.0 137.0,90.0" stroke="none"></polygon><polygon fill="#D3A2C7" points="123.0,129.0 139.0,129.0 139.0,133.0 123.0,133.0" stroke="none"></polygon><polygon fill="#D3A2C7" points="167.0,87.0 183.0,87.0 183.0,91.0 167.0,91.0" stroke="none"></polygon><polygon fill="#D3A2C7" points="137.0,115.0 141.0,115.0 141.0,131.0 137.0,131.0" stroke="none"></polygon><polygon fill="#D3A2C7" points="137.0,133.0 141.0,133.0 141.0,149.0 137.0,149.0" stroke="none"></polygon><polygon fill="#D3A2C7" points="161.0,187.0 177.0,187.0 177.0,191.0 161.0,191.0" stroke="none"></polygon></svg>