<svg baseProfile="full" height="563.2" version="1.1" width="563.2" xmlns="http://www.w3.org/2000/svg" xmlns:ev="http://www.w3.org/2001/xml-events" xmlns:xlink="http://www.w3.org/1999/xlink" viewBox="0 0 256 256"><defs></defs><polygon fill="#FFD274" points="123.0,83.0 123.0,127.0 187.0,127.0 187.0,83.0" stroke="black" stroke-width="4"></polygon><polygon fill="#BEBEBE" points="123.0,64.0 123.0,83.0 187.0,83.0 187.0,64.0" stroke="black" stroke-width="4"></polygon><polygon fill="#BEBEBE" points="57.0,158.0 57.0,190.0 114.0,190.0 114.0,158.0" stroke="black" stroke-width="4"></polygon><polygon fill="#BFE3E8" points="57.0,190.0 57.0,216.0 187.0,216.0 187.0,190.0" stroke="black" stroke-width="4"></polygon><polygon fill="#EE4D4D" points="93.0,110.0 93.0,158.0 113.0,158.0 114.0,159.0 114.0,190.0 187.0,190.0 187.0,127.0 124.0,127.0 123.0,126.0 123.0,110.0" stroke="black" stroke-width="4"></polygon><polygon fill="#C67C7B" points="79.0,64.0 79.0,110.0 123.0,110.0 123.0,64.0" stroke="black" stroke-width="4"></polygon><polygon fill="#C67C7B" points="57.0,96.0 57.0,158.0 93.0,158.0 93.0,110.0 80.0,110.0 79.0,109.0 79.0,96.0" stroke="black" stroke-width="4"></polygon><polygon fill="#727171" points="185.0,137.0 189.0,137.0 189.0,153.0 185.0,153.0" stroke="none"></polygon><polygon fill="#D3A2C7" points="151.0,81.0 167.0,81.0 167.0,85.0 151.0,85.0" stroke="none"></polygon><polygon fill="#D3A2C7" points="121.0,113.0 125.0,113.0 125.0,129.0 121.0,129.0" stroke="none"></polygon><polygon fill="#D3A2C7" points="112.0,175.0 116.0,175.0 116.0,191.0 112.0,191.0" stroke="none"></polygon><polygon fill="#D3A2C7" points="147.0,188.0 163.0,188.0 163.0,192.0 147.0,192.0" stroke="none"></polygon><polygon fill="#D3A2C7" points="100.0,108.0 116.0,108.0 116.0,112.0 100.0,112.0" stroke="none"></polygon><polygon fill="#D3A2C7" points="74.0,156.0 90.0,156.0 90.0,160.0 74.0,160.0" stroke="none"></polygon></svg>