<svg baseProfile="full" height="563.2" version="1.1" width="563.2" xmlns="http://www.w3.org/2000/svg" xmlns:ev="http://www.w3.org/2001/xml-events" xmlns:xlink="http://www.w3.org/1999/xlink" viewBox="0 0 256 256"><defs></defs><polygon fill="#FFD274" points="134.0,81.0 134.0,142.0 188.0,142.0 188.0,81.0" stroke="black" stroke-width="4"></polygon><polygon fill="#BEBEBE" points="150.0,142.0 150.0,183.0 188.0,183.0 188.0,142.0" stroke="black" stroke-width="4"></polygon><polygon fill="#BEBEBE" points="61.0,92.0 61.0,130.0 60.0,131.0 48.0,131.0 48.0,208.0 92.0,208.0 92.0,92.0" stroke="black" stroke-width="4"></polygon><polygon fill="#BFE3E8" points="150.0,183.0 150.0,208.0 188.0,208.0 188.0,183.0" stroke="black" stroke-width="4"></polygon><polygon fill="#EE4D4D" points="107.0,40.0 107.0,91.0 106.0,92.0 92.0,92.0 92.0,208.0 150.0,208.0 150.0,142.0 135.0,142.0 134.0,141.0 134.0,40.0" stroke="black" stroke-width="4"></polygon><polygon fill="#C67C7B" points="134.0,40.0 134.0,81.0 188.0,81.0 188.0,40.0" stroke="black" stroke-width="4"></polygon><polygon fill="#C67C7B" points="61.0,40.0 61.0,92.0 107.0,92.0 107.0,40.0" stroke="black" stroke-width="4"></polygon><polygon fill="#D3A2C7" points="174.0,140.0 190.0,140.0 190.0,144.0 174.0,144.0" stroke="none"></polygon><polygon fill="#D3A2C7" points="134.0,140.0 150.0,140.0 150.0,144.0 134.0,144.0" stroke="none"></polygon><polygon fill="#D3A2C7" points="90.0,109.0 94.0,109.0 94.0,125.0 90.0,125.0" stroke="none"></polygon><polygon fill="#D3A2C7" points="148.0,188.0 152.0,188.0 152.0,204.0 148.0,204.0" stroke="none"></polygon><polygon fill="#D3A2C7" points="132.0,62.0 136.0,62.0 136.0,78.0 132.0,78.0" stroke="none"></polygon><polygon fill="#D3A2C7" points="81.0,90.0 97.0,90.0 97.0,94.0 81.0,94.0" stroke="none"></polygon></svg>