<svg baseProfile="full" height="563.2" version="1.1" width="563.2" xmlns="http://www.w3.org/2000/svg" xmlns:ev="http://www.w3.org/2001/xml-events" xmlns:xlink="http://www.w3.org/1999/xlink" viewBox="0 0 256 256"><defs></defs><polygon fill="#FFD274" points="86.0,134.0 86.0,195.0 123.0,195.0 123.0,134.0" stroke="black" stroke-width="4"></polygon><polygon fill="#FFD274" points="148.0,124.0 148.0,163.0 183.0,163.0 183.0,124.0" stroke="black" stroke-width="4"></polygon><polygon fill="#FFD274" points="61.0,117.0 61.0,195.0 86.0,195.0 86.0,135.0 87.0,134.0 103.0,134.0 103.0,117.0" stroke="black" stroke-width="4"></polygon><polygon fill="#BEBEBE" points="61.0,94.0 61.0,117.0 86.0,117.0 86.0,94.0" stroke="black" stroke-width="4"></polygon><polygon fill="#C67C7B" points="116.0,48.0 116.0,74.0 155.0,74.0 155.0,48.0" stroke="black" stroke-width="4"></polygon><polygon fill="#EE4D4D" points="86.0,74.0 86.0,117.0 102.0,117.0 103.0,118.0 103.0,134.0 122.0,134.0 123.0,135.0 123.0,215.0 183.0,215.0 183.0,163.0 149.0,163.0 148.0,162.0 148.0,125.0 149.0,124.0 155.0,124.0 155.0,74.0" stroke="black" stroke-width="4"></polygon><polygon fill="#BFE3E8" points="61.0,195.0 61.0,215.0 103.0,215.0 103.0,195.0" stroke="black" stroke-width="4"></polygon><polygon fill="#7BA779" points="155.0,94.0 155.0,116.0 154.0,117.0 148.0,117.0 148.0,124.0 183.0,124.0 183.0,94.0" stroke="black" stroke-width="4"></polygon><polygon fill="#727171" points="86.0,72.0 102.0,72.0 102.0,76.0 86.0,76.0" stroke="none"></polygon><polygon fill="#D3A2C7" points="71.0,115.0 87.0,115.0 87.0,119.0 71.0,119.0" stroke="none"></polygon><polygon fill="#D3A2C7" points="121.0,134.0 125.0,134.0 125.0,150.0 121.0,150.0" stroke="none"></polygon><polygon fill="#D3A2C7" points="146.0,134.0 150.0,134.0 150.0,150.0 146.0,150.0" stroke="none"></polygon><polygon fill="#D3A2C7" points="101.0,117.0 105.0,117.0 105.0,133.0 101.0,133.0" stroke="none"></polygon><polygon fill="#D3A2C7" points="127.0,72.0 143.0,72.0 143.0,76.0 127.0,76.0" stroke="none"></polygon><polygon fill="#D3A2C7" points="65.0,193.0 81.0,193.0 81.0,197.0 65.0,197.0" stroke="none"></polygon><polygon fill="#D3A2C7" points="163.0,122.0 179.0,122.0 179.0,126.0 163.0,126.0" stroke="none"></polygon></svg>