<svg baseProfile="full" height="563.2" version="1.1" width="563.2" xmlns="http://www.w3.org/2000/svg" xmlns:ev="http://www.w3.org/2001/xml-events" xmlns:xlink="http://www.w3.org/1999/xlink" viewBox="0 0 256 256">
  <defs></defs>

  <polygon fill="#FFD274"
           points="107.0,91.0 107.0,136.0 189.0,136.0 189.0,91.0"
           stroke="black"
           stroke-width="4">
  </polygon>

  <polygon fill="#BEBEBE" points="107.0,48.0 107.0,91.0 147.0,91.0 147.0,48.0" stroke="black" stroke-width="4"></polygon>
  <polygon fill="#BEBEBE" points="57.0,91.0 57.0,136.0 90.0,136.0 90.0,91.0" stroke="black" stroke-width="4"></polygon>
  <polygon fill="#BFE3E8" points="57.0,158.0 57.0,204.0 120.0,204.0 120.0,158.0" stroke="black" stroke-width="4"></polygon>
  <polygon fill="#EE4D4D" points="90.0,91.0 90.0,135.0 89.0,136.0 57.0,136.0 57.0,158.0 119.0,158.0 120.0,159.0 120.0,204.0 189.0,204.0 189.0,136.0 108.0,136.0 107.0,135.0 107.0,91.0" stroke="black" stroke-width="4"></polygon>
  <polygon fill="#E87A90" points="147.0,48.0 147.0,91.0 189.0,91.0 189.0,48.0" stroke="black" stroke-width="4"></polygon>
  <polygon fill="#727171" points="187.0,186.0 191.0,186.0 191.0,202.0 187.0,202.0" stroke="none"></polygon>
  <polygon fill="#D3A2C7" points="131.0,89.0 147.0,89.0 147.0,93.0 131.0,93.0" stroke="none"></polygon>
  <polygon fill="#D3A2C7" points="113.0,134.0 129.0,134.0 129.0,138.0 113.0,138.0" stroke="none"></polygon>
  <polygon fill="#D3A2C7" points="88.0,112.0 92.0,112.0 92.0,128.0 88.0,128.0" stroke="none"></polygon>
  <polygon fill="#D3A2C7" points="105.0,156.0 121.0,156.0 121.0,160.0 105.0,160.0" stroke="none"></polygon>
  <polygon fill="#D3A2C7" points="158.0,89.0 174.0,89.0 174.0,93.0 158.0,93.0" stroke="none"></polygon>
</svg>
