<svg baseProfile="full" height="563.2" version="1.1" width="563.2" xmlns="http://www.w3.org/2000/svg" xmlns:ev="http://www.w3.org/2001/xml-events" xmlns:xlink="http://www.w3.org/1999/xlink" viewBox="0 0 256 256"><defs></defs><polygon fill="#FFD274" points="147.0,57.0 147.0,121.0 193.0,121.0 193.0,57.0" stroke="black" stroke-width="4"></polygon><polygon fill="#FFD274" points="99.0,108.0 99.0,120.0 98.0,121.0 60.0,121.0 60.0,175.0 119.0,175.0 119.0,108.0" stroke="black" stroke-width="4"></polygon><polygon fill="#BEBEBE" points="147.0,121.0 147.0,147.0 193.0,147.0 193.0,121.0" stroke="black" stroke-width="4"></polygon><polygon fill="#BEBEBE" points="53.0,91.0 53.0,121.0 99.0,121.0 99.0,91.0" stroke="black" stroke-width="4"></polygon><polygon fill="#BFE3E8" points="72.0,180.0 72.0,204.0 119.0,204.0 119.0,180.0" stroke="black" stroke-width="4"></polygon><polygon fill="#EE4D4D" points="53.0,48.0 53.0,91.0 98.0,91.0 99.0,92.0 99.0,108.0 118.0,108.0 119.0,109.0 119.0,204.0 171.0,204.0 171.0,147.0 148.0,147.0 147.0,146.0 147.0,48.0" stroke="black" stroke-width="4"></polygon><polygon fill="#727171" points="145.0,44.0 149.0,44.0 149.0,60.0 145.0,60.0" stroke="none"></polygon><polygon fill="#D3A2C7" points="174.0,119.0 190.0,119.0 190.0,123.0 174.0,123.0" stroke="none"></polygon><polygon fill="#D3A2C7" points="97.0,106.0 101.0,106.0 101.0,122.0 97.0,122.0" stroke="none"></polygon><polygon fill="#D3A2C7" points="145.0,106.0 149.0,106.0 149.0,122.0 145.0,122.0" stroke="none"></polygon><polygon fill="#D3A2C7" points="117.0,106.0 121.0,106.0 121.0,122.0 117.0,122.0" stroke="none"></polygon><polygon fill="#D3A2C7" points="97.0,91.0 101.0,91.0 101.0,107.0 97.0,107.0" stroke="none"></polygon><polygon fill="#D3A2C7" points="117.0,184.0 121.0,184.0 121.0,200.0 117.0,200.0" stroke="none"></polygon></svg>