<svg baseProfile="full" height="563.2" version="1.1" width="563.2" xmlns="http://www.w3.org/2000/svg" xmlns:ev="http://www.w3.org/2001/xml-events" xmlns:xlink="http://www.w3.org/1999/xlink" viewBox="0 0 256 256"><defs></defs><polygon fill="#FFD274" points="134.0,32.0 134.0,82.0 174.0,82.0 174.0,32.0" stroke="black" stroke-width="4"></polygon><polygon fill="#FFD274" points="134.0,82.0 134.0,127.0 188.0,127.0 188.0,82.0" stroke="black" stroke-width="4"></polygon><polygon fill="#BEBEBE" points="69.0,48.0 69.0,100.0 107.0,100.0 107.0,48.0" stroke="black" stroke-width="4"></polygon><polygon fill="#BFE3E8" points="69.0,192.0 69.0,228.0 119.0,228.0 119.0,192.0" stroke="black" stroke-width="4"></polygon><polygon fill="#EE4D4D" points="107.0,32.0 107.0,112.0 134.0,112.0 134.0,32.0" stroke="black" stroke-width="4"></polygon><polygon fill="#C67C7B" points="165.0,155.0 165.0,203.0 188.0,203.0 188.0,155.0" stroke="black" stroke-width="4"></polygon><polygon fill="#BEBEBE" points="69.0,100.0 69.0,137.0 95.0,137.0 95.0,100.0" stroke="black" stroke-width="4"></polygon><polygon fill="#BEBEBE" points="150.0,127.0 150.0,155.0 188.0,155.0 188.0,127.0" stroke="black" stroke-width="4"></polygon><polygon fill="#7BA779" points="174.0,32.0 174.0,82.0 199.0,82.0 199.0,32.0" stroke="black" stroke-width="4"></polygon><polygon fill="#EE4D4D" points="95.0,112.0 95.0,137.0 118.0,137.0 119.0,138.0 119.0,228.0 165.0,228.0 165.0,155.0 151.0,155.0 150.0,154.0 150.0,127.0 135.0,127.0 134.0,126.0 134.0,112.0" stroke="black" stroke-width="4"></polygon><polygon fill="#727171" points="118.0,30.0 134.0,30.0 134.0,34.0 118.0,34.0" stroke="none"></polygon><polygon fill="#D3A2C7" points="132.0,69.0 136.0,69.0 136.0,85.0 132.0,85.0" stroke="none"></polygon><polygon fill="#D3A2C7" points="132.0,98.0 136.0,98.0 136.0,114.0 132.0,114.0" stroke="none"></polygon><polygon fill="#D3A2C7" points="105.0,88.0 109.0,88.0 109.0,104.0 105.0,104.0" stroke="none"></polygon><polygon fill="#D3A2C7" points="86.0,226.0 102.0,226.0 102.0,230.0 86.0,230.0" stroke="none"></polygon><polygon fill="#D3A2C7" points="173.0,80.0 189.0,80.0 189.0,84.0 173.0,84.0" stroke="none"></polygon><polygon fill="#D3A2C7" points="134.0,125.0 150.0,125.0 150.0,129.0 134.0,129.0" stroke="none"></polygon><polygon fill="#D3A2C7" points="163.0,157.0 167.0,157.0 167.0,173.0 163.0,173.0" stroke="none"></polygon><polygon fill="#D3A2C7" points="93.0,116.0 97.0,116.0 97.0,132.0 93.0,132.0" stroke="none"></polygon><polygon fill="#D3A2C7" points="149.0,153.0 165.0,153.0 165.0,157.0 149.0,157.0" stroke="none"></polygon></svg>