<svg baseProfile="full" height="563.2" version="1.1" width="563.2" xmlns="http://www.w3.org/2000/svg" xmlns:ev="http://www.w3.org/2001/xml-events" xmlns:xlink="http://www.w3.org/1999/xlink" viewBox="0 0 256 256"><defs></defs><polygon fill="#FFD274" points="56.0,120.0 56.0,151.0 121.0,151.0 122.0,152.0 122.0,223.0 165.0,223.0 165.0,120.0" stroke="black" stroke-width="4"></polygon><polygon fill="#BEBEBE" points="56.0,91.0 56.0,120.0 107.0,120.0 107.0,91.0" stroke="black" stroke-width="4"></polygon><polygon fill="#EE4D4D" points="107.0,48.0 107.0,120.0 187.0,120.0 187.0,48.0" stroke="black" stroke-width="4"></polygon><polygon fill="#BFE3E8" points="56.0,151.0 56.0,223.0 122.0,223.0 122.0,151.0" stroke="black" stroke-width="4"></polygon><polygon fill="#FF8C69" points="165.0,151.0 165.0,223.0 203.0,223.0 203.0,151.0" stroke="black" stroke-width="4"></polygon><polygon fill="#1F849B" points="56.0,40.0 56.0,91.0 107.0,91.0 107.0,40.0" stroke="black" stroke-width="4"></polygon><polygon fill="#727171" points="185.0,103.0 189.0,103.0 189.0,119.0 185.0,119.0" stroke="none"></polygon><polygon fill="#D3A2C7" points="91.0,118.0 107.0,118.0 107.0,122.0 91.0,122.0" stroke="none"></polygon><polygon fill="#D3A2C7" points="105.0,103.0 109.0,103.0 109.0,119.0 105.0,119.0" stroke="none"></polygon><polygon fill="#D3A2C7" points="120.0,151.0 124.0,151.0 124.0,167.0 120.0,167.0" stroke="none"></polygon><polygon fill="#D3A2C7" points="163.0,151.0 167.0,151.0 167.0,167.0 163.0,167.0" stroke="none"></polygon><polygon fill="#D3A2C7" points="105.0,77.0 109.0,77.0 109.0,93.0 105.0,93.0" stroke="none"></polygon></svg>